<svg xmlns="http://www.w3.org/2000/svg" viewBox="0 0 64 64">
  <!-- Fundo -->
  <rect width="64" height="64" rx="12" fill="#2d1a0e"/>
  <!-- Corpo -->
  <ellipse cx="32" cy="42" rx="17" ry="11" fill="#c8a86b"/>
  <!-- Cabeça -->
  <ellipse cx="32" cy="25" rx="11" ry="10" fill="#c8a86b"/>
  <!-- Focinho -->
  <ellipse cx="32" cy="32" rx="7" ry="4" fill="#a07848"/>
  <!-- Narinas -->
  <circle cx="29.5" cy="32.5" r="1.4" fill="#7a5030"/>
  <circle cx="34.5" cy="32.5" r="1.4" fill="#7a5030"/>
  <!-- Olhos -->
  <circle cx="27" cy="22" r="2.2" fill="#1a0e00"/>
  <circle cx="37" cy="22" r="2.2" fill="#1a0e00"/>
  <circle cx="27.7" cy="21.4" r="0.7" fill="#fff"/>
  <circle cx="37.7" cy="21.4" r="0.7" fill="#fff"/>
  <!-- Orelhas -->
  <ellipse cx="20" cy="21" rx="4" ry="2.5" fill="#c8a86b" transform="rotate(-30 20 21)"/>
  <ellipse cx="44" cy="21" rx="4" ry="2.5" fill="#c8a86b" transform="rotate(30 44 21)"/>
  <ellipse cx="20" cy="21" rx="2.2" ry="1.2" fill="#e8b4a0" transform="rotate(-30 20 21)"/>
  <ellipse cx="44" cy="21" rx="2.2" ry="1.2" fill="#e8b4a0" transform="rotate(30 44 21)"/>
  <!-- Chifres -->
  <path d="M22 17 Q16 9 13 11" stroke="#8B6914" stroke-width="2.5" stroke-linecap="round" fill="none"/>
  <path d="M42 17 Q48 9 51 11" stroke="#8B6914" stroke-width="2.5" stroke-linecap="round" fill="none"/>
  <!-- Patas -->
  <rect x="19" y="51" width="5" height="7" rx="2" fill="#a07848"/>
  <rect x="27" y="52" width="5" height="6" rx="2" fill="#a07848"/>
  <rect x="33" y="52" width="5" height="6" rx="2" fill="#a07848"/>
  <rect x="41" y="51" width="5" height="7" rx="2" fill="#a07848"/>
  <!-- Rabo -->
  <path d="M49 39 Q57 35 55 43 Q53 47 56 51" stroke="#c8a86b" stroke-width="2" stroke-linecap="round" fill="none"/>
  <!-- Mancha -->
  <ellipse cx="36" cy="39" rx="7" ry="5" fill="#8B5E3C" opacity="0.35"/>
</svg>
